<?xml version="1.0" encoding="utf-8"?>
<!-- Generator: Adobe Illustrator 22.0.1, SVG Export Plug-In . SVG Version: 6.00 Build 0)  -->
<svg version="1.1" id="Layer_1" xmlns="http://www.w3.org/2000/svg" xmlns:xlink="http://www.w3.org/1999/xlink" x="0px" y="0px"
	 viewBox="0 0 268.8 107.7" style="enable-background:new 0 0 268.8 107.7;" xml:space="preserve">
<style type="text/css">
	.st0{fill:none;stroke:#000000;stroke-miterlimit:10;}
	.st1{fill:#FFC44A;}
	.st2{fill:#00FF00;}
	.st3{fill:#E8A599;}
	.st4{fill:#2AC6FF;}
	.st5{fill:#46C2F1;}
</style>
<g>
	<path class="st0" d="M29,36"/>
	<g>
		<g>
			<path class="st1" d="M18.7,89c11.5-18.4,32.5-2.4,46.9,2.5c14.6,5,30.5,2.1,43.3-6c1.6-1,0.1-3.6-1.5-2.6
				c-8.3,5.2-17.8,8.3-27.7,8.1s-18.3-4.3-27.1-8.3c-6.6-3-13.9-6.3-21.3-5.4c-6.4,0.8-11.8,4.7-15.2,10.1
				C15.1,89.2,17.7,90.7,18.7,89L18.7,89z"/>
		</g>
	</g>
	<g>
		<g>
			<path class="st1" d="M21.4,95.6c5.5-10,21.8-1.8,29.1,2.1c6.7,3.6,12.9,7.3,20.6,8.3c13.2,1.7,26.6-3.2,35.5-13
				c1.3-1.4-0.8-3.6-2.1-2.1c-12.1,13.3-31,15.7-46.6,7.4c-9.6-5.1-31.1-18.5-39-4.2C17.9,95.8,20.4,97.3,21.4,95.6L21.4,95.6z"/>
		</g>
	</g>
	<g>
		<g>
			<path class="st2" d="M32.5,31c7.6,14.9,11.2,31.2,10.7,48c-0.1,1.9,2.9,1.9,3,0c0.5-17.2-3.3-34.1-11.1-49.5
				C34.2,27.8,31.6,29.3,32.5,31L32.5,31z"/>
		</g>
	</g>
	<g>
		<g>
			<path class="st2" d="M37.9,26.2c0.8,9.7,3.6,18.9,6.6,28.1c3.2,9.7,6,19.4,8,29.4c0.4,1.9,3.3,1.1,2.9-0.8
				C53.5,73.5,51,64.3,48,55.2c-3.1-9.5-6.3-19-7.1-29C40.7,24.3,37.7,24.3,37.9,26.2L37.9,26.2z"/>
		</g>
	</g>
	<g>
		<path class="st2" d="M33.3,29.6c-2.5-0.4-4.3,2.5-4.5,5.1c-0.2,2.5,0.6,5.2-0.1,7.6c-4-3.8-5.2-10.2-3-15.2
			c-0.8-0.4-1.5,0.4-2,1.1c-1.9,2.9-3.9,5.7-5.8,8.6c-0.6-4.2-1.2-8.9,1.4-12.3c1.9-2.5,5-3.7,7.9-4.6c-2.8-1.8-6.4-2.2-9.5-1.1
			c2.4-2.7,6-4.4,9.6-4.6c3.7-0.1,7.3,1.3,9.9,3.9c-0.6-0.3-0.4-1.3-0.1-1.9c1.3-2.1,3.6-3.3,6-3.7s4.8-0.3,7.3-0.1
			c-3.4,0.9-6.3,3.6-7.5,6.9C46,19.1,49,21,51,23.4s3.1,5.4,4.2,8.3c-3.7-4.4-9.2-7.3-14.9-7.8"/>
		<g>
			<path class="st2" d="M33.3,28.1c-7.6,0.4-5.2,8.8-6.1,13.8c0.8-0.2,1.7-0.4,2.5-0.7c-3.6-3.9-4.4-8.8-2.5-13.7
				c0.5-1.2-0.8-2-1.8-1.8c-3.9,0.6-6.7,7.5-8.7,10.4c0.9,0.1,1.8,0.2,2.7,0.4c-0.4-2.8-0.9-6.1,0.1-8.8c1.4-3.6,4.6-5,8.1-6.2
				c1.2-0.4,1.5-2.1,0.4-2.7c-3.4-1.9-6.9-2.3-10.6-1.2c0.5,0.8,1,1.7,1.5,2.5c5-5,12.1-5.4,17.5-0.7c1.3,1.1,3.1-0.3,2.4-1.8
				c-0.9-2,5.9-3.6,6.5-3.7c1.8-0.2,3.7,0,5.5,0.2c-0.1-1-0.3-2-0.4-2.9c-3.9,1.3-6.8,3.8-8.4,7.6c-0.5,1.1,0.1,2.2,1.3,2.3
				c6.4,0.3,8.9,6.3,10.9,11.4c0.8-0.5,1.7-1,2.5-1.5c-4.3-4.8-9.6-7.4-16-8.3c-1.9-0.3-1.9,2.8,0,3c5.6,0.7,10.1,3.3,13.9,7.4
				c1,1.1,3.1-0.1,2.5-1.5C54.6,25,51.2,18.4,43.3,18c0.4,0.8,0.9,1.5,1.3,2.3c1.3-3.1,3.4-5.2,6.6-6.2c1.6-0.5,1.3-2.8-0.4-2.9
				c-3.9-0.3-18,0.5-14.5,8c0.8-0.6,1.6-1.2,2.4-1.8c-6.6-5.8-15.5-5.5-21.7,0.7c-1.1,1.1,0,2.9,1.5,2.5c3-0.8,5.6-0.6,8.3,0.9
				c0.1-0.9,0.2-1.8,0.4-2.7c-4,1.4-8,3-9.8,7.1c-1.7,3.7-1.1,7.8-0.5,11.6c0.2,1.4,2.1,1.3,2.7,0.4c1.3-1.9,4.6-8.7,6.9-9
				c-0.6-0.6-1.2-1.2-1.8-1.8c-2.2,5.9-1,12,3.3,16.6c0.7,0.8,2.3,0.4,2.5-0.7c0.5-2.9-1.2-11.3,3.2-11.6C35.2,31,35.2,28,33.3,28.1
				L33.3,28.1z"/>
		</g>
	</g>
	<g>
		<path class="st3" d="M56.8,47.1c2.9,8.3,5.2,16.8,6.8,25.4c0.9,5.2,2.1,9.3,1.4,14.5"/>
		<g>
			<path class="st3" d="M55.3,47.5c2.2,6.2,4,12.5,5.5,19c1.5,6.7,3.3,13.7,2.7,20.6c-0.2,1.9,2.8,1.9,3,0c0.6-6.6-1-13.1-2.4-19.5
				c-1.5-7.1-3.5-14-5.9-20.8C57.6,44.9,54.7,45.6,55.3,47.5L55.3,47.5z"/>
		</g>
	</g>
	<g>
		<path class="st3" d="M61.3,43.5c2.9,15.5,7.8,30.6,14.6,44.9"/>
		<g>
			<path class="st3" d="M59.8,43.9c3,15.7,8,30.8,14.7,45.3c0.8,1.7,3.4,0.2,2.6-1.5c-6.6-14.2-11.4-29.1-14.4-44.5
				C62.4,41.2,59.5,42,59.8,43.9L59.8,43.9z"/>
		</g>
	</g>
	<g>
		<path class="st3" d="M56.2,46.3c-2.3,3.1-2.7,7.3-3,11.1c-1-5.4-1.1-10.9-0.4-16.3c-1.1-0.2-1.8,1-2.3,2s-1.4,2.1-2.4,1.7
			c-0.2,0.4-0.4,0.9-0.6,1.3c0.3-3,1.3-5.8,3.1-8.2c0.4-0.5,0.8-1,1.4-1.2c1.6-0.4,2.8,1.9,4.5,1.9c-0.6-1.7-1.2-3.3-1.7-5
			c1.3-0.1,1.6,2,2.7,2.4c1,0.4,1.9-0.6,2.7-1.3c1.6-1.5,3.8-2.3,6-2.3c-1.2,1.7-2.5,3.4-3.7,5.1c4.9,0.8,9,5.2,9.5,10.2
			c-3-2.3-7.1-3.3-10.8-2.5"/>
		<g>
			<path class="st3" d="M54.9,45.6c-2.3,3.6-2.8,7.7-3.2,11.9c1-0.1,2-0.3,2.9-0.4c-0.9-5.3-1-10.5-0.4-15.9c0.1-1-1-1.6-1.9-1.4
				c-1.8,0.4-3.1,3.6-4.4,3.7c-0.7,0-1.2,0.5-1.4,1.1c-0.2,0.4-0.4,0.9-0.6,1.3c1,0.3,1.9,0.5,2.9,0.8c0.3-2.3,0.8-6.2,3.1-7.3
				c1.6-0.8,2.2,0.4,4,0.9c1,0.2,2.2-0.7,1.8-1.8c-0.6-1.7-1.2-3.3-1.7-5c-0.6,0.6-1.2,1.2-1.8,1.8c1.9,0.6,1.7,2.7,4.1,2.4
				c2.9-0.4,4.5-3.4,7.8-3.6c-0.4-0.8-0.9-1.5-1.3-2.3c-1.2,1.7-2.5,3.4-3.7,5.1c-0.6,0.8,0,2,0.9,2.2c4.7,1.1,7.7,4.4,8.5,9.1
				c0.7-0.6,1.5-1.1,2.2-1.7c-3.7-2.5-7.6-3.3-11.9-2.6c-1.9,0.3-1.1,3.2,0.8,2.9c3.6-0.6,6.7,0.3,9.6,2.3c1.2,0.8,2.4-0.5,2.2-1.7
				c-0.9-5.7-4.9-9.9-10.6-11.2c0.3,0.7,0.6,1.5,0.9,2.2c1.2-1.7,2.5-3.4,3.7-5.1c0.7-0.9-0.2-2.3-1.3-2.3c-2.4,0.2-4,0.9-6.1,1.9
				c-2.9,1.5-2.4,0.2-5-0.7c-1-0.3-2.2,0.8-1.8,1.8c0.6,1.7,1.2,3.3,1.7,5c0.6-0.6,1.2-1.2,1.8-1.8c-2.7-0.6-3.8-3-6.6-1.2
				c-2.7,1.8-3.8,6.8-4.2,9.7c-0.3,1.9,2.1,2.6,2.9,0.8c0.2-0.4,0.4-0.9,0.6-1.3c-0.5,0.4-1,0.7-1.4,1.1c2.9-0.1,2.8-3.3,5.2-3.8
				c-0.6-0.5-1.3-1-1.9-1.4c-0.6,5.6-0.4,11.1,0.5,16.7c0.3,1.8,2.8,1.2,2.9-0.4c0.3-3.7,0.7-7.1,2.8-10.4
				C58.5,45.4,55.9,43.9,54.9,45.6L54.9,45.6z"/>
		</g>
	</g>
	<g>
		<g>
			<path class="st4" d="M77.4,33.4c6,18.1,6.7,37.6,7.8,56.5c0.1,1.9,3.1,1.9,3,0c-1.1-19.2-1.9-39-7.9-57.3
				C79.6,30.8,76.7,31.5,77.4,33.4L77.4,33.4z"/>
		</g>
	</g>
	<g>
		<g>
			<path class="st4" d="M83.5,33.9c0.5,19,5.9,37.4,15.9,53.6c1,1.6,3.6,0.1,2.6-1.5c-9.7-15.8-15-33.6-15.5-52.1
				C86.4,32,83.4,32,83.5,33.9L83.5,33.9z"/>
		</g>
	</g>
	<g>
		<path class="st5" d="M87,31.9c4.1,2,7.2,5.9,8.3,10.3c0.4-5.5-0.7-11.1-3.2-15.9c2.4,0.9,4.7,2.1,6.9,3.5
			c-1.3-5.9-6.7-10.7-12.8-11.2c2.2,0.1,4.4-0.1,6.6-0.6c-2.5-2.3-5.9-3.7-9.3-3.7c-1.6,0-3.5,0.5-4,2c-0.9-2.3-3.8-3.3-6.1-2.7
			c-2.4,0.5-4.3,2.2-5.9,4.1c2.3-1.3,5.6-0.6,7.2,1.5c-4.6-0.7-9.3,3.6-9,8.2c2.1-3.3,6.5-5,10.3-4.1c-3.8,3.5-5.6,9.1-4.4,14.1
			c0.2-3.9,2.9-7.6,6.7-8.9c-0.9,1.9-1.4,4-1.7,6c0.5-0.5,0.9-1,1.4-1.5"/>
		<g>
			<path class="st5" d="M86.2,33.2c3.9,2.1,6.4,5.2,7.6,9.4c0.5,1.7,2.9,1.3,2.9-0.4c0.3-5.9-0.8-11.4-3.4-16.7
				c-0.6,0.7-1.1,1.5-1.7,2.2c2.3,0.9,4.4,2,6.6,3.3c1.1,0.7,2.5-0.4,2.2-1.7c-1.8-6.8-7.2-11.4-14.2-12.3c0,1,0,2,0,3
				c2.4,0,4.7-0.2,7-0.6c1.1-0.2,1.5-1.8,0.7-2.5c-3.9-3.3-12-6.9-15.6-1.4c0.9,0,1.7,0,2.6,0c-3.6-6.2-10.6-3.2-14.4,1.1
				c-0.9,1,0,3.1,1.5,2.5c2-1.1,4-0.7,5.8,1.1c0.4-0.9,0.7-1.7,1.1-2.6c-5.8-0.3-10.2,3.9-10.5,9.7c-0.1,1.6,2,1.8,2.8,0.8
				c2.1-2.8,5.1-4,8.6-3.4c-0.2-0.8-0.4-1.7-0.7-2.5c-4.3,4.3-5.9,9.7-4.8,15.6c0.3,1.8,2.8,1.1,2.9-0.4c0.4-3.5,2.3-6.1,5.6-7.4
				c-0.6-0.6-1.2-1.2-1.8-1.8c-0.8,2-1.3,3.9-1.7,6c-0.2,1.3,1.4,2.7,2.5,1.5c0.5-0.5,0.9-1,1.4-1.5c1.3-1.4-0.8-3.6-2.1-2.1
				c-0.5,0.5-0.9,1-1.4,1.5c0.8,0.5,1.7,1,2.5,1.5c0.3-2.1,0.8-4,1.7-6c0.4-1-0.8-2.3-1.8-1.8c-4.6,1.9-7.2,5.4-7.8,10.3
				c1-0.1,2-0.3,2.9-0.4c-0.9-4.8,0.5-9.2,4-12.6c0.7-0.7,0.5-2.3-0.7-2.5c-4.9-0.8-9,0.8-12,4.8c0.9,0.3,1.9,0.5,2.8,0.8
				c0.2-4.2,3.3-6.9,7.5-6.7c1.3,0.1,2-1.7,1.1-2.6c-2.5-2.4-5.4-3.1-8.7-1.9c0.5,0.8,1,1.7,1.5,2.5c2.2-2.4,6.9-6.4,9.7-1.7
				c0.6,1,2,0.9,2.6,0c2.3-3.5,8.9,0.3,10.9,2c0.2-0.8,0.4-1.7,0.7-2.5c-2.1,0.4-4.1,0.5-6.2,0.5c-2,0-1.9,2.8,0,3
				c5.7,0.7,9.9,4.6,11.3,10.1c0.7-0.6,1.5-1.1,2.2-1.7c-2.3-1.4-4.7-2.6-7.3-3.6c-1.3-0.5-2.2,1.2-1.7,2.2c2.3,4.8,3.3,9.8,3,15.2
				c1-0.1,2-0.3,2.9-0.4c-1.4-4.9-4.4-8.7-9-11.2C86,29.7,84.5,32.3,86.2,33.2L86.2,33.2z"/>
		</g>
	</g>
</g>
<g>
	<path class="st1" d="M121.7,52.4l7.8-11.6c-1.8,0-3.6,0.4-5.6,0.7c-2,0.4-3.6,0.9-5.1,1.4c-1.4,0.5-2.7,0.9-3.8,1.4
		s-1.8,0.7-2.4,0.9c-0.2,0-0.2,0-0.4-0.2c-0.2,0-0.2-0.2-0.2-0.4c0-0.2,0.4-0.9,1.3-2.5c0.7-1.4,1.8-3.3,2.9-4.9
		c6-2.2,11.2-3.3,15.9-3.3c5.3,0,9.1,1.1,11.1,3.4c0.7,0.7,1.3,1.8,1.6,2.9s0.5,2.4,0.5,3.4c0,2.5-0.5,4.9-1.6,7.1
		c-1.1,2.2-2.5,4-4.5,5.4c-2,1.4-4.3,2.7-7.1,3.4s-5.6,1.3-8.9,1.3c-0.5,0-1.6-0.2-3.4-0.4l-2.4,4.2c0.2,0.4,0.4,0.7,0.4,0.9
		c0,0.5-0.2,0.9-0.4,1.3c-0.4,0.5-0.7,1.3-1.4,2c-0.5,0.9-0.9,1.4-1.1,1.6c-0.2,0.2-0.4,0.5-0.7,0.7s-0.5,0.4-0.7,0.4
		c-0.5,0-0.7-0.2-0.9-0.4c-0.2-0.4-0.2-0.7-0.2-1.3c0-0.7,0.4-2,1.1-3.6c0.7-1.6,1.8-3.8,3.4-6.5c-0.7-0.4-1.4-0.7-1.8-1.3
		c-0.4-0.5-0.7-0.9-0.7-1.4c0-1.1,0.5-2,1.8-2.9C117.6,53.4,119.4,52.9,121.7,52.4z M124.5,53.1l-1.4,2.5c0.7,0,1.3,0,1.8,0.2
		c0.5,0,0.9,0,1.3,0c3.1,0,5.6-0.4,7.8-1.3c2.2-0.9,4-1.8,5.3-2.9c1.3-1.1,2.2-2.4,2.9-3.6c0.5-1.3,0.9-2.2,0.9-3.1
		c0-1.1-0.4-2-1.3-2.5c-0.9-0.5-2.2-1.1-3.8-1.3c-1.6-0.2-3.8-0.4-6.5-0.4c0,0.2,0,0.4,0,0.7c0,0.9-0.5,2-1.4,3.4l-4.5,7.1l3.4-0.4
		c0.4,0,0.4,0.2,0.4,0.4c0,0.2-0.2,0.4-0.7,0.5L124.5,53.1z"/>
	<path class="st1" d="M157.1,59.4v1.8c-1.6,2.2-3.3,3.8-4.7,4.9c-1.4,1.1-2.7,1.6-3.6,1.6c-1.4,0-2.4-0.7-3.1-2.2
		c-0.7-1.4-1.1-3.1-1.1-4.9c0-0.7,0-1.3,0.2-2s0.4-1.1,0.5-1.4c0.2-0.4,0.5-1.1,1.1-1.8c2.4-3.8,4.7-5.6,6.7-5.6
		c1.1,0,1.6,0.4,1.6,1.3c0,0.5-0.4,1.4-1.1,2.5c-0.7,1.1-1.3,2-1.8,2.5c-1.4,1.4-2.5,2.4-2.9,3.1c-0.5,0.5-0.7,1.3-0.7,2
		c0,0.5,0.2,1.1,0.7,1.4c0.5,0.4,1.1,0.5,1.8,0.5s1.6-0.4,2.7-0.9C154.4,61.8,155.6,60.9,157.1,59.4z M155.5,48
		c-0.4,0-0.9-0.2-1.3-0.5c-0.4-0.4-0.5-0.7-0.5-1.3c0-0.7,0.4-1.6,1.1-2.5c0.7-0.9,1.4-1.4,2.2-1.4c0.5,0,0.9,0.2,1.3,0.5
		c0.4,0.4,0.5,0.7,0.5,1.4s-0.4,1.6-1.1,2.4S156.2,48,155.5,48z"/>
	<path class="st1" d="M162.5,59.4v-6c-0.5,0.2-1.3,0.4-1.8,0.9c-0.5,0.4-1.3,0.9-1.8,1.4c-0.7,0.5-1.1,0.9-1.3,0.9s-0.4-0.2-0.4-0.7
		c0-0.5,0.5-1.4,1.4-2.7c1.1-1.3,2.2-2.4,3.4-3.4c1.3-1.1,2.2-1.6,2.7-1.6c0.4,0,0.5,0.2,0.9,0.5c0.4,0.4,0.4,0.9,0.4,1.4
		c0,0.4,0,0.9,0,1.3s0,0.9,0,1.4c0,0.5,0,1.4,0,2.5c3.8-4,6-6,6.7-6c0.2,0,0.4,0,0.5,0.2c0.2,0.2,0.2,0.4,0.2,0.5
		c0,0.5-0.5,1.4-1.4,2.5c-0.9,1.1-1.4,1.8-1.8,1.8s-0.7,0-1.1-0.2l-3.3,4.2c0,1.4,0.2,2.5,0.4,3.4c0.2,0.7,0.7,1.1,1.3,1.1
		s1.1-0.2,1.8-0.7c0.7-0.5,1.8-1.4,3.3-2.9v1.8c-3.4,4.9-6,7.2-7.4,7.2c-0.9,0-1.6-0.5-2-1.4c-0.4-0.9-0.7-2.4-0.7-4.3
		c-0.5,0.5-1.3,1.4-2.2,2.2c-0.7,0.9-1.4,1.4-1.8,1.8c-0.4,0.4-0.7,0.7-1.1,0.9c-0.4,0.2-0.5,0.4-0.7,0.4s-0.4-0.2-0.4-0.5
		c0-0.7,0.4-1.6,1.1-2.9c0.7-1.3,1.3-1.8,1.6-1.8c0,0,0.2,0,0.4,0.2L162.5,59.4z"/>
	<path class="st1" d="M176.5,54.9c2.5-2.4,5.1-4.2,7.6-5.3c2.4-1.1,4.3-1.6,5.6-1.6c0.4,0,0.7,0.2,1.1,0.4c0.4,0.2,0.5,0.7,0.7,1.1
		s0.2,0.7,0.2,0.9c0,0.4-0.2,0.5-0.4,0.7c-0.2,0.2-0.7,0.4-1.3,0.5c0.2,0.4,0.4,0.5,0.5,1.1c0.2,0.5,0.4,0.7,0.4,1.1
		s0.2,0.5,0.2,0.7c0,0.4-0.4,1.1-1.3,2.4s-1.4,2-1.8,2.5c-0.4,0.5-0.5,1.3-0.5,2c0,1.3,0.5,1.8,1.8,1.8c1.3,0,3.1-1.1,5.6-3.4v1.6
		c-4.3,4.9-7.4,7.2-9.2,7.2c-0.7,0-1.1-0.2-1.4-0.7c-0.4-0.4-0.4-1.1-0.4-2c0-1.3,0.5-3.3,1.4-5.8c-2.5,2.7-4.3,4.7-5.6,6
		s-2.2,1.8-3.1,1.8c-0.4,0-0.9-0.4-1.4-0.9c-0.5-0.5-1.1-1.4-1.4-2.5c-0.4-1.1-0.7-2.2-0.7-3.3c0-0.7,0-1.4,0.2-2
		c0.2-0.5,0.5-1.1,0.9-1.6C174.7,56.5,175.4,55.8,176.5,54.9z M188.8,52c-4.5,2-7.6,3.8-9.4,5.3c-1.8,1.4-2.9,2.9-2.9,4.3
		c0,0.5,0.2,1.1,0.4,1.3c0.2,0.2,0.4,0.5,0.7,0.5c0.2,0,0.5-0.2,1.1-0.4c1.8-1.1,3.4-2.4,4.9-4.2C184.8,57.2,186.6,55.1,188.8,52z"
		/>
	<path class="st1" d="M209.6,59.4v1.8c-1.1,1.1-1.8,1.8-2.4,2.2c-0.5,0.5-1.3,0.9-2.2,1.4c0,1.6,0,2.9-0.2,4
		c-0.2,1.1-0.5,2.2-1.1,3.4c-0.5,1.3-1.3,2.5-2.5,4c-1.1,1.4-2.2,2.5-3.3,3.3c-1.1,0.7-1.8,1.1-2.5,1.1c-0.7,0-1.3-0.5-1.8-1.6
		c-0.5-1.1-0.9-2.5-0.9-4.2c0-1.6,0.2-3.3,0.7-4.9c0.5-1.8,1.3-4,2.5-6.7c-0.9-1.1-1.3-2.2-1.3-3.3c0-0.9,0.2-1.4,0.7-2
		c0.4-0.5,1.1-0.9,1.8-1.3c0.5-0.9,1.1-1.8,1.6-2.4c0.5-0.7,1.3-1.4,2.2-2.7c1.8-4.3,3.8-8.7,6.3-12.9c0.7-1.1,1.1-2,1.4-2.4
		c0.4-0.4,0.5-0.5,0.9-0.5c0.4,0,0.5,0.2,0.7,0.7s0.4,0.9,0.4,1.6c0,0.9,0,1.6-0.2,2.4s-0.4,1.4-0.7,2.2c-0.4,0.7-0.7,1.6-1.4,2.5
		c-0.5,0.9-0.9,1.6-1.1,1.8c-0.9,1.4-1.8,3.3-2.9,5.1c-1.1,1.8-2,3.3-2.5,4.3c-0.5,1.1-1.1,1.8-1.3,2.4c0.9,0.7,1.6,1.4,2.2,2
		c0.5,0.5,1.1,1.3,1.4,2c0.5-0.2,1.1-0.5,1.6-0.7c0.5-0.4,1.1-0.7,1.6-1.3C208.4,60.5,209.1,60,209.6,59.4z M202,66.3v-0.5
		c-0.5,0-0.9,0-1.1,0c-0.4,0-0.5-0.2-1.1-0.2c-0.4-0.2-0.7-0.2-0.9-0.4c-0.2-0.2-0.4-0.2-0.7-0.4c-1.3,3.3-2,5.8-2,8
		c0,1.1,0.2,2,0.5,2.7c0.4,0.7,0.7,1.1,1.1,1.1c0.4,0,1.1-0.4,1.6-1.3c0.5-0.9,1.3-2,1.8-3.4C201.7,70.5,202,68.7,202,66.3z"/>
	<path class="st1" d="M212.5,54.9c2.5-2.4,5.1-4.2,7.6-5.3c2.4-1.1,4.3-1.6,5.6-1.6c0.4,0,0.7,0.2,1.1,0.4c0.4,0.2,0.5,0.7,0.7,1.1
		s0.2,0.7,0.2,0.9c0,0.4-0.2,0.5-0.4,0.7c-0.2,0.2-0.7,0.4-1.3,0.5c0.2,0.4,0.4,0.5,0.5,1.1c0.2,0.5,0.4,0.7,0.4,1.1
		s0.2,0.5,0.2,0.7c0,0.4-0.4,1.1-1.3,2.4s-1.4,2-1.8,2.5c-0.4,0.5-0.5,1.3-0.5,2c0,1.3,0.5,1.8,1.8,1.8s3.1-1.1,5.6-3.4v1.6
		c-4.3,4.9-7.4,7.2-9.2,7.2c-0.7,0-1.1-0.2-1.4-0.7c-0.4-0.4-0.4-1.1-0.4-2c0-1.3,0.5-3.3,1.4-5.8c-2.5,2.7-4.3,4.7-5.6,6
		s-2.2,1.8-3.1,1.8c-0.4,0-0.9-0.4-1.4-0.9c-0.5-0.5-1.1-1.4-1.4-2.5c-0.4-1.1-0.7-2.2-0.7-3.3c0-0.7,0-1.4,0.2-2
		c0.2-0.5,0.5-1.1,0.9-1.6C210.7,56.5,211.5,55.8,212.5,54.9z M224.7,52c-4.5,2-7.6,3.8-9.4,5.3c-1.8,1.4-2.9,2.9-2.9,4.3
		c0,0.5,0.2,1.1,0.4,1.3c0.2,0.2,0.4,0.5,0.7,0.5c0.2,0,0.5-0.2,1.1-0.4c1.8-1.1,3.4-2.4,4.9-4.2C220.9,57.2,222.7,55.1,224.7,52z"
		/>
	<path class="st1" d="M231,61.4v-1.6c0.9-1.1,1.6-2,2.2-2.7c-0.5-0.2-0.9-0.4-1.3-0.7c-0.2-0.4-0.4-0.7-0.4-1.3
		c0-0.5,0.2-1.4,0.7-2.4c0.5-0.9,1.1-1.8,1.8-2.7s1.4-1.3,2-1.6c0.2-0.2,0.5-0.2,0.7-0.2c0.4,0,0.5,0.2,0.5,0.5
		c0,0.4-0.2,0.9-0.7,1.8c3.4-0.5,5.8-0.9,6.7-0.9c0.4,0,0.5,0,0.7,0.2c0.4,0.2,0.5,0.5,0.7,1.1c0.2,0.5,0.4,1.1,0.4,1.6
		c0,0.4-0.2,0.7-0.5,1.1c-0.4,0.4-0.9,1.1-1.6,1.8c-0.9,0.9-1.6,2-2.4,3.3c-0.5,1.1-0.9,2-0.9,2.5c0,0.7,0.5,1.3,1.4,1.3
		c1.1,0,2.9-1.1,5.4-3.3v1.6c-1.4,1.4-2.5,2.7-3.4,3.4c-0.9,0.9-1.8,1.4-2.5,2c-0.7,0.5-1.4,0.7-2.2,0.7c-0.7,0-1.3-0.4-1.8-0.9
		c-0.5-0.7-0.7-1.6-0.7-2.9c0-0.7,0.2-1.6,0.5-2.5s0.9-2,1.6-3.1c0.7-1.1,1.6-2.2,2.5-3.3c-0.5,0.2-1.1,0.2-1.6,0.4
		c-0.5,0.2-1.3,0.2-1.8,0.4c-0.5,0.2-1.3,0.2-1.4,0.4C234.7,57.8,233.2,59.8,231,61.4z"/>
	<path class="st1" d="M259.5,59.4v1.8c-1.6,2.2-3.3,3.8-4.7,4.9c-1.4,1.1-2.7,1.6-3.6,1.6c-1.4,0-2.4-0.7-3.1-2.2
		c-0.7-1.4-1.1-3.1-1.1-4.9c0-0.7,0-1.3,0.2-2c0.2-0.7,0.4-1.1,0.5-1.4c0.2-0.4,0.5-1.1,1.1-1.8c2.4-3.8,4.7-5.6,6.7-5.6
		c1.1,0,1.6,0.4,1.6,1.3c0,0.5-0.4,1.4-1.1,2.5s-1.3,2-1.8,2.5c-1.4,1.4-2.5,2.4-2.9,3.1c-0.5,0.5-0.7,1.3-0.7,2
		c0,0.5,0.2,1.1,0.7,1.4c0.5,0.4,1.1,0.5,1.8,0.5c0.7,0,1.6-0.4,2.7-0.9C256.8,61.8,258,60.9,259.5,59.4z M257.9,48
		c-0.4,0-0.9-0.2-1.3-0.5c-0.4-0.4-0.5-0.7-0.5-1.3c0-0.7,0.4-1.6,1.1-2.5c0.7-0.9,1.4-1.4,2.2-1.4c0.5,0,0.9,0.2,1.3,0.5
		c0.4,0.4,0.5,0.7,0.5,1.4s-0.4,1.6-1.1,2.4S258.6,48,257.9,48z"/>
</g>
</svg>
